<?xml version="1.0" encoding="utf-8"?>
<!-- Generator: Adobe Illustrator 23.0.6, SVG Export Plug-In . SVG Version: 6.00 Build 0)  -->
<svg version="1.1" id="Ebene_1" xmlns="http://www.w3.org/2000/svg" xmlns:xlink="http://www.w3.org/1999/xlink" x="0px" y="0px"
	 viewBox="0 0 1000 1000" style="enable-background:new 0 0 1000 1000;" xml:space="preserve">
<style type="text/css">
	.st0{fill:#FFFFFF;}
	.st1{fill:#BFBFBF;}
	.st2{fill:#D11E1F;}
	.st3{fill:none;}
	.st4{fill:#333333;}
</style>
<rect class="st0" width="1000" height="1000"/>
<path class="st1" d="M186.5,177.5h-169c-4.1,0-7.5-3.4-7.5-7.5V17.5c0-4.1,3.4-7.5,7.5-7.5h169c4.1,0,7.5,3.4,7.5,7.5V170
	C194,174.1,190.6,177.5,186.5,177.5z"/>
<path class="st1" d="M382.2,360H219.8c-6,0-10.8-4.9-10.8-10.8V20.8c0-6,4.9-10.8,10.8-10.8h162.3c6,0,10.8,4.9,10.8,10.8v328.3
	C393,355.1,388.1,360,382.2,360z"/>
<path class="st1" d="M581.2,542.5H418.8c-6,0-10.8-4.9-10.8-10.8V203.3c0-6,4.9-10.8,10.8-10.8h162.3c6,0,10.8,4.9,10.8,10.8v328.3
	C592,537.6,587.1,542.5,581.2,542.5z"/>
<path class="st1" d="M780.2,360H617.8c-6,0-10.8-4.9-10.8-10.8V20.8c0-6,4.9-10.8,10.8-10.8h162.3c6,0,10.8,4.9,10.8,10.8v328.3
	C791,355.1,786.1,360,780.2,360z"/>
<path class="st1" d="M979.2,360H816.8c-6,0-10.8-4.9-10.8-10.8V20.8c0-6,4.9-10.8,10.8-10.8h162.3c6,0,10.8,4.9,10.8,10.8v328.3
	C990,355.1,985.1,360,979.2,360z"/>
<path class="st1" d="M382.2,725H219.8c-6,0-10.8-4.9-10.8-10.8V385.8c0-6,4.9-10.8,10.8-10.8h162.3c6,0,10.8,4.9,10.8,10.8v328.3
	C393,720.1,388.1,725,382.2,725z"/>
<path class="st1" d="M183.2,542.5H20.8c-6,0-10.8-4.9-10.8-10.8V203.3c0-6,4.9-10.8,10.8-10.8h162.3c6,0,10.8,4.9,10.8,10.8v328.3
	C194,537.6,189.1,542.5,183.2,542.5z"/>
<g>
	<g>
		<circle class="st2" cx="799" cy="567.9" r="183"/>
	</g>
	<g>
		
			<rect x="616" y="536.9" transform="matrix(0.9943 -0.1065 0.1065 0.9943 -56.9345 88.4032)" class="st3" width="367" height="81"/>
		<path class="st0" d="M659.1,556.4l22.1-2.4c10.1-1.1,17.5-0.4,22.4,1.9c4.9,2.4,7.6,6.7,8.3,12.9c0.5,4.2-0.2,7.8-1.9,10.8
			c-1.7,2.9-4.2,4.9-7.4,5.8l0.1,0.5c4.6,0.5,8.1,2.1,10.3,4.6c2.3,2.5,3.7,6.1,4.2,10.7c0.7,6.5-1.1,11.8-5.4,15.9
			c-4.3,4.1-10.4,6.6-18.5,7.5l-26.6,2.8L659.1,556.4z M677.2,582.9l8.7-0.9c4.1-0.4,7-1.4,8.7-2.8c1.7-1.5,2.4-3.6,2.1-6.6
			c-0.3-2.7-1.5-4.6-3.6-5.5c-2.1-1-5.3-1.2-9.6-0.8l-7.9,0.8L677.2,582.9z M678.5,594.8l2,18.5l9.8-1.1c4.1-0.4,7.1-1.6,8.9-3.4
			c1.8-1.8,2.5-4.3,2.2-7.6c-0.6-5.9-5.2-8.4-13.6-7.5L678.5,594.8z"/>
		<path class="st0" d="M794.2,577.7c1.3,11.7-0.7,21.1-5.8,28c-5.2,6.9-13.2,11-24,12.2c-10.9,1.2-19.6-1.1-26.1-6.8
			c-6.5-5.7-10.4-14.4-11.7-26.3c-1.3-11.8,0.7-21.1,5.9-28c5.2-6.9,13.2-10.9,24.1-12s19.6,1.1,26,6.7
			C789,557.2,792.9,566,794.2,577.7z M742.3,583.3c0.8,7.9,3,13.7,6.4,17.4s8.2,5.2,14.1,4.6c12-1.3,17.2-9.9,15.5-25.9
			c-1.7-16-8.5-23.3-20.5-22.1c-6,0.6-10.3,3.1-12.9,7.5C742.4,569.2,741.5,575.4,742.3,583.3z"/>
		<path class="st0" d="M873.3,569.3c1.3,11.7-0.7,21.1-5.8,28c-5.2,6.9-13.2,11-24,12.2c-10.9,1.2-19.6-1.1-26.1-6.8
			s-10.4-14.4-11.7-26.3c-1.3-11.8,0.7-21.1,5.9-28c5.2-6.9,13.2-10.9,24.1-12c10.9-1.2,19.6,1.1,26,6.7
			C868.2,548.8,872,557.5,873.3,569.3z M821.5,574.8c0.8,7.9,3,13.7,6.4,17.4s8.2,5.2,14.1,4.6c12-1.3,17.2-9.9,15.5-25.9
			c-1.7-16-8.5-23.3-20.5-22.1c-6,0.6-10.3,3.1-12.9,7.5C821.5,560.7,820.6,566.9,821.5,574.8z"/>
		<path class="st0" d="M948.9,597.2l-17.1,1.8L910,571.1l-5.9,5.2l2.7,25.3l-15.1,1.6l-7.6-71l15.1-1.6l3.5,32.5l5-9l16.6-26.2
			l16.7-1.8l-21.4,34.1L948.9,597.2z"/>
	</g>
</g>
<rect y="780" class="st4" width="1000" height="220"/>
<g>
	<rect y="823" class="st3" width="336" height="133"/>
	<path class="st0" d="M76.7,906.6L70.8,886H41.6l-5.8,20.6H17.4l28.3-86.7h20.8L95,906.6H76.7z M66.8,870.7
		c-5.4-18.6-8.4-29.2-9.1-31.6c-0.7-2.4-1.2-4.4-1.5-5.8c-1.2,5-4.7,17.5-10.4,37.4H66.8z"/>
	<path class="st0" d="M123.7,906.6h-17v-71.1H84.9v-15.2h60.6v15.2h-21.8V906.6z"/>
	<path class="st0" d="M218.4,863.3c0,14.3-3.3,25.3-9.9,33c-6.6,7.7-16,11.5-28.3,11.5s-21.7-3.8-28.3-11.5
		c-6.6-7.7-9.9-18.7-9.9-33.1c0-14.4,3.3-25.4,9.9-32.9c6.6-7.6,16.1-11.4,28.4-11.4c12.3,0,21.8,3.8,28.3,11.5
		C215.1,838,218.4,849,218.4,863.3z M159.8,863.3c0,9.7,1.7,16.9,5.1,21.8c3.4,4.9,8.5,7.3,15.3,7.3c13.6,0,20.4-9.7,20.4-29.1
		c0-19.5-6.8-29.2-20.3-29.2c-6.8,0-11.9,2.5-15.3,7.4C161.5,846.4,159.8,853.6,159.8,863.3z"/>
	<path class="st0" d="M256.6,906.6l-19.3-67.8h-0.5c0.7,13.8,1,23,1,27.6v40.2h-15.2v-86.4h23.2l19,66.1h0.3l20.2-66.1h23.2v86.4
		h-15.9v-40.9c0-1.9,0-4.2,0.1-6.7c0.1-2.5,0.3-9.2,0.7-20.1h-0.5l-20.7,67.6H256.6z"/>
</g>
<g>
	<rect x="341" y="815" class="st3" width="657" height="167"/>
	<path class="st0" d="M412.8,881.9l-4.7-15h-23.4l-4.7,15h-14.7l22.7-63.1h16.7l22.8,63.1H412.8z M404.9,855.8
		c-4.3-13.5-6.7-21.2-7.3-23c-0.5-1.8-0.9-3.2-1.2-4.2c-1,3.7-3.7,12.7-8.3,27.2H404.9z"/>
	<path class="st0" d="M474.5,838.7c0,6.8-2.2,11.9-6.5,15.5c-4.3,3.6-10.5,5.4-18.4,5.4h-5.8v22.3h-13.6v-62.8h20.5
		c7.8,0,13.7,1.6,17.8,4.9C472.5,827.3,474.5,832.2,474.5,838.7z M443.8,848.6h4.5c4.2,0,7.3-0.8,9.4-2.4c2.1-1.6,3.1-4,3.1-7.1
		c0-3.1-0.9-5.4-2.6-6.9c-1.7-1.5-4.5-2.2-8.2-2.2h-6.2V848.6z"/>
	<path class="st0" d="M525.6,838.7c0,6.8-2.2,11.9-6.5,15.5c-4.3,3.6-10.5,5.4-18.4,5.4h-5.8v22.3h-13.6v-62.8h20.5
		c7.8,0,13.7,1.6,17.8,4.9C523.6,827.3,525.6,832.2,525.6,838.7z M494.9,848.6h4.5c4.2,0,7.3-0.8,9.4-2.4c2.1-1.6,3.1-4,3.1-7.1
		c0-3.1-0.9-5.4-2.6-6.9c-1.7-1.5-4.5-2.2-8.2-2.2h-6.2V848.6z"/>
	<path class="st0" d="M590.6,850.4c0,10.4-2.6,18.4-7.9,24s-12.8,8.4-22.7,8.4c-9.8,0-17.4-2.8-22.7-8.4c-5.3-5.6-7.9-13.6-7.9-24.1
		c0-10.5,2.6-18.4,7.9-24c5.3-5.5,12.9-8.3,22.7-8.3s17.4,2.8,22.6,8.3C588,832,590.6,840,590.6,850.4z M543.8,850.4
		c0,7,1.4,12.3,4.1,15.9c2.7,3.6,6.8,5.3,12.2,5.3c10.9,0,16.3-7.1,16.3-21.2c0-14.2-5.4-21.2-16.2-21.2c-5.4,0-9.5,1.8-12.3,5.3
		C545.1,838.1,543.8,843.4,543.8,850.4z"/>
	<path class="st0" d="M598.6,881.9v-62.8h13.6v62.8H598.6z"/>
	<path class="st0" d="M679.9,881.9h-17.3l-27.9-47.5h-0.4c0.6,8.4,0.8,14.4,0.8,18v29.6h-12.2v-62.8h17.2l27.9,47.1h0.3
		c-0.4-8.2-0.7-13.9-0.7-17.3v-29.7h12.3V881.9z"/>
	<path class="st0" d="M715.5,881.9h-13.6v-51.7h-17.4v-11.1h48.5v11.1h-17.4V881.9z"/>
	<path class="st0" d="M764.6,881.9l-15.5-49.3h-0.4c0.6,10,0.8,16.7,0.8,20.1v29.2h-12.2v-62.8H756l15.2,48h0.3l16.1-48h18.5v62.8
		h-12.7v-29.7c0-1.4,0-3,0.1-4.9c0-1.8,0.2-6.7,0.6-14.6h-0.4l-16.6,49.2H764.6z"/>
	<path class="st0" d="M853.8,881.9h-37v-62.8h37V830h-23.4v13.8h21.7v10.9h-21.7v16.2h23.4V881.9z"/>
	<path class="st0" d="M918.8,881.9h-17.3l-27.9-47.5h-0.4c0.6,8.4,0.8,14.4,0.8,18v29.6h-12.2v-62.8H879l27.9,47.1h0.3
		c-0.4-8.2-0.7-13.9-0.7-17.3v-29.7h12.3V881.9z"/>
	<path class="st0" d="M954.4,881.9h-13.6v-51.7h-17.4v-11.1h48.5v11.1h-17.4V881.9z"/>
	<path class="st0" d="M400,963.9l-15.5-49.3h-0.4c0.6,10,0.8,16.7,0.8,20.1v29.2h-12.2v-62.8h18.5l15.2,48h0.3l16.1-48h18.5v62.8
		h-12.7v-29.7c0-1.4,0-3,0.1-4.9c0-1.8,0.2-6.7,0.6-14.6H429l-16.6,49.2H400z"/>
	<path class="st0" d="M491.5,963.9l-4.7-15h-23.4l-4.7,15h-14.7l22.7-63.1h16.7l22.8,63.1H491.5z M483.6,937.8
		c-4.3-13.5-6.7-21.2-7.3-23c-0.5-1.8-0.9-3.2-1.2-4.2c-1,3.7-3.7,12.7-8.3,27.2H483.6z"/>
	<path class="st0" d="M565.9,963.9h-17.3l-27.9-47.5h-0.4c0.6,8.4,0.8,14.4,0.8,18v29.6h-12.2v-62.8h17.2l27.9,47.1h0.3
		c-0.4-8.2-0.7-13.9-0.7-17.3v-29.7h12.3V963.9z"/>
	<path class="st0" d="M616,963.9l-4.7-15h-23.4l-4.7,15h-14.7l22.7-63.1h16.7l22.8,63.1H616z M608.1,937.8
		c-4.3-13.5-6.7-21.2-7.3-23c-0.5-1.8-0.9-3.2-1.2-4.2c-1,3.7-3.7,12.7-8.3,27.2H608.1z"/>
	<path class="st0" d="M657.7,928.6h25.5v32.6c-4.1,1.3-8,2.2-11.7,2.8s-7.4,0.8-11.2,0.8c-9.7,0-17.1-2.8-22.2-8.4
		c-5.1-5.6-7.7-13.6-7.7-24c0-10.1,3-18,8.9-23.7c5.9-5.7,14.2-8.5,24.7-8.5c6.6,0,12.9,1.3,19.1,3.9l-4.5,10.7
		c-4.7-2.3-9.6-3.4-14.6-3.4c-5.9,0-10.6,1.9-14.1,5.8c-3.5,3.9-5.3,9.1-5.3,15.6c0,6.8,1.4,12,4.3,15.6c2.9,3.6,7,5.4,12.5,5.4
		c2.8,0,5.7-0.3,8.7-0.9v-13.1h-12.2V928.6z"/>
	<path class="st0" d="M730.1,963.9h-37v-62.8h37V912h-23.4v13.8h21.7v10.9h-21.7v16.2h23.4V963.9z"/>
	<path class="st0" d="M765.3,963.9l-15.5-49.3h-0.4c0.6,10,0.8,16.7,0.8,20.1v29.2h-12.2v-62.8h18.5l15.2,48h0.3l16.1-48h18.5v62.8
		h-12.7v-29.7c0-1.4,0-3,0.1-4.9c0-1.8,0.2-6.7,0.6-14.6h-0.4l-16.6,49.2H765.3z"/>
	<path class="st0" d="M854.5,963.9h-37v-62.8h37V912h-23.4v13.8h21.7v10.9h-21.7v16.2h23.4V963.9z"/>
	<path class="st0" d="M919.5,963.9h-17.3l-27.9-47.5h-0.4c0.6,8.4,0.8,14.4,0.8,18v29.6h-12.2v-62.8h17.2l27.9,47.1h0.3
		c-0.4-8.2-0.7-13.9-0.7-17.3v-29.7h12.3V963.9z"/>
	<path class="st0" d="M955.1,963.9h-13.6v-51.7H924v-11.1h48.5v11.1h-17.4V963.9z"/>
</g>
<rect x="337" y="753" class="st0" width="4" height="248"/>
<g>
</g>
<g>
</g>
<g>
</g>
<g>
</g>
<g>
</g>
<g>
</g>
<g>
</g>
<g>
</g>
<g>
</g>
<g>
</g>
<g>
</g>
<g>
</g>
<g>
</g>
<g>
</g>
<g>
</g>
</svg>
